<svg id="Layer_1" data-name="Layer 1" xmlns="http://www.w3.org/2000/svg" viewBox="0 0 1450 292.2"><defs><style>.cls-1{fill:#22ab9d;}</style></defs><path class="cls-1" d="M433,80.89c-3.18,8-6.29,15.86-9.5,23.93-2.74-1.2-5.24-2.25-7.71-3.38a60,60,0,0,0-17.65-5c-5.44-.68-10.68,0-14.68,4.45-3,3.32-3.8,7.38-3.49,11.69.49,6.8,5,10.73,10.3,14,4.52,2.82,9.17,5.4,13.8,8,6.21,3.61,12.36,7.33,17.54,12.35,7.27,7.07,11.44,15.62,11.72,25.88.19,6.46-.14,12.84-2.36,19-3.52,9.83-10.18,16.71-19.46,21.06a54.23,54.23,0,0,1-19.55,4.75,90,90,0,0,1-23.19-1.4,62.86,62.86,0,0,1-19-6.84V180.83c2.51,1.13,4.83,2.14,7.09,3.22,7.49,3.62,15.21,6.64,23.49,7.85,5.68.85,11.43,1.09,16.89-1.43,4.81-2.22,6.77-6.23,7.27-11.25.72-7.19-3-12.22-8.31-16.09-4.54-3.3-9.53-6-14.33-8.92-3.14-1.92-6.37-3.69-9.5-5.65A48.06,48.06,0,0,1,357.87,135a35.92,35.92,0,0,1-6.68-20.7c0-6.06,0-12.05,2-17.89A35,35,0,0,1,373,74.63a54.8,54.8,0,0,1,16.65-3.84c14.63-1.48,31.38,3.64,43.29,10.1"/><path class="cls-1" d="M585.14,216.3H556.62c-.64-2.17-.81-105.3-.17-109.51h26.1v13.27l.64.19c.51-.68,1.06-1.34,1.53-2,5.24-7.77,12.63-11.93,21.82-13.33a42.13,42.13,0,0,1,19.39,1.36c9.74,3.11,15.72,9.91,19,19.38a54.7,54.7,0,0,1,2.9,17.75c.16,23.29.08,46.58.06,69.86,0,.92-.09,1.81-.14,2.66-2.36.65-23.8.87-29.2.3-.07-.82-.2-1.7-.2-2.58,0-21,0-42.05,0-63.08,0-5.57-.77-11-3.48-16a10.29,10.29,0,0,0-8.3-5.57A17,17,0,0,0,594,131.84c-2.93,2.08-4.4,5.1-5.6,8.26a44.12,44.12,0,0,0-2.74,15.32c-.19,19.48-.28,39-.41,58.43,0,.71-.06,1.41-.11,2.45"/><path class="cls-1" d="M822.13,161.42c0-2.08.08-4,0-6a49.06,49.06,0,0,0-3.6-17.27,15.31,15.31,0,0,0-4.74-6.29c-4.73-3.65-10.07-3.68-15.51-2.49a12.43,12.43,0,0,0-8.15,6c-3,5.07-4.24,10.63-4.7,16.36-.36,4.37-.2,8.79-.22,13.2a50.38,50.38,0,0,0,2.58,16.88c1.65,4.78,4.15,9,9.22,10.82a20.56,20.56,0,0,0,12.08.39A11.22,11.22,0,0,0,816,188.3a31.75,31.75,0,0,0,3.7-7.36,53.84,53.84,0,0,0,2.4-19.52m29.74-.39c-.15,10.32-1.5,20.38-5.56,30a42.55,42.55,0,0,1-18.39,21.14,46.18,46.18,0,0,1-18.65,5.59,54.08,54.08,0,0,1-19.16-1.32,41.14,41.14,0,0,1-18.06-10c-8.56-8-13.34-18-15.15-29.43a105.89,105.89,0,0,1-1.57-16.14A77.39,77.39,0,0,1,759,136c4.23-12.69,11.89-22.53,24.51-27.94a48.38,48.38,0,0,1,16.37-3.68A52.53,52.53,0,0,1,819,106.55a42.4,42.4,0,0,1,25.31,21,56.66,56.66,0,0,1,7,25.17c.09,2.75.38,5.5.57,8.26"/><path class="cls-1" d="M512.57,148.54a23.12,23.12,0,0,0-2.34-12.87c-3.9-8.51-11.91-11.32-20.18-9.15-8.1,2.12-13.56,10.84-12.9,22Zm21,38.48V210.5a42.26,42.26,0,0,1-10.89,4.57,54,54,0,0,1-16.59,2.62c-3.07,0-6.14.43-9.2.35a58.83,58.83,0,0,1-21-4c-11.59-4.78-19.63-13.07-24.46-24.55-3.43-8.14-4.61-16.71-4.83-25.44a83.23,83.23,0,0,1,3.73-28.19c4-12.27,11.15-22.09,23.28-27.47a51.67,51.67,0,0,1,27.94-3.79,45.36,45.36,0,0,1,14.94,4.33c10.9,5.51,17.48,14.47,20.83,26a62.87,62.87,0,0,1,2.28,19.1c-.09,4.8,0,9.61,0,14.88-7.07.21-14,.06-20.92.1q-10.62,0-21.23,0H476.61c-.5,13.87,8,26,22.72,26.35a66.75,66.75,0,0,0,33-8,10.48,10.48,0,0,1,1.24-.36"/><path class="cls-1" d="M1183.68,216.28h-20.35c-8.78-35.87-17.53-71.63-26.35-107.63h18.68c6.09,30.47,13.93,60.57,18.46,91.45,2.26-10.21,4.32-20.46,6.89-30.59s5.66-20.26,8.48-30.41,5.53-20.24,8.33-30.48h18.74c2.53,5.71,21.91,81.95,23.4,91.22,1.33-5,1.67-10.09,2.66-15.1s1.78-10.26,2.8-15.37,2.22-10.15,3.37-15.23,2.36-9.93,3.48-14.9,2.18-10.18,3.32-15.26,2.35-10.14,3.55-15.35h18c-.67,3-1.29,5.79-2,8.61q-4.36,17.52-8.76,35c-2.25,8.92-4.56,17.81-6.83,26.73q-3.93,15.6-7.85,31.19c-.28,1.09-.64,2.16-.94,3.24-.71,2.74-.71,2.77-3.35,2.77-5.85,0-11.69,0-17.9,0-7.69-29.73-15.92-59.27-22.81-89.21-6.17,30.19-15.51,59.41-23,89.26"/><path class="cls-1" d="M741.54,113.11c-3,7.38-5.87,14.44-8.78,21.63-3.84-1.57-7.33-3-10.81-4.42a39.55,39.55,0,0,0-12.11-3.08,36.79,36.79,0,0,0-7.91.33c-3.06.41-5.41,2-6,5.27-.63,3.49.08,6.57,3.34,8.48,4.34,2.51,8.68,5,13.13,7.3,6.2,3.14,12.71,5.74,18.31,10s10,9.49,11.16,16.67c1.65,10.06,1.1,19.82-5.19,28.43-5.1,6.95-12.32,10.68-20.5,12.58-7.71,1.8-15.53,2-23.46,1.51a71.81,71.81,0,0,1-22.13-4.42c-1.32-.52-2.61-1.14-3.93-1.73v-25c.72.25,1.37.4,2,.68a87.06,87.06,0,0,0,24.79,7.75c4.72.73,9.54.9,14.26-.75,6.36-2.23,8.59-10.71,2.84-15a85.67,85.67,0,0,0-10.45-6.4c-5.05-2.71-10.27-5.07-15.35-7.71a35.88,35.88,0,0,1-13.47-11.39,26.46,26.46,0,0,1-4.67-15,62.43,62.43,0,0,1,.47-10.69c1.42-8.7,6.51-14.84,14.21-18.88,6.67-3.49,13.9-4.77,21.31-5.11a70.71,70.71,0,0,1,29.75,5c2.92,1.16,5.8,2.48,9.22,4"/><path class="cls-1" d="M1349,150.76a25.45,25.45,0,0,0,0-3.83,85.75,85.75,0,0,0-2-10.22,20.76,20.76,0,0,0-6.68-10.81c-7.93-6.42-20.93-5.6-28.11,1.73-6.27,6.36-7.84,14.51-8.77,23.13Zm14.19,43.9V211c-5.51,2.67-11.25,5.11-17.46,5.93A107,107,0,0,1,1330.1,218c-18.51-.38-31.91-8.85-39.73-25.83-3.82-8.33-5.22-17.13-5.46-26.2-.24-9.45.46-18.81,3.32-27.87,3.4-10.71,8.82-20,18.72-26.1a33.47,33.47,0,0,1,18-5.39c4.69,0,9.37-.21,14,1.13,10.61,3,18.08,9.75,23,19.36a52.47,52.47,0,0,1,5.69,25.49c-.09,4.29,0,8.59,0,13.27h-64.51c.2,6.41.69,12.35,2.75,18.06a42,42,0,0,0,2.86,6.42c4.06,7.21,10.56,10.45,18.58,11.33a62.35,62.35,0,0,0,23-2.14c3.64-1,7.07-2.66,10.59-4l2.19-.85"/><path class="cls-1" d="M1057.05,162c0,7.85.63,15.87,3.18,23.66,2.86,8.73,8.13,14.88,17.56,16.47a38.52,38.52,0,0,0,9.47.47c7.18-.58,13.19-3.56,17.06-9.94a40.86,40.86,0,0,0,5.26-15.92,106.28,106.28,0,0,0,.77-21.7,70.44,70.44,0,0,0-2.79-16.25c-2.7-8.63-8.07-14.58-17.24-16.54a30.85,30.85,0,0,0-16.06.8,18.65,18.65,0,0,0-9.47,6.45,30.93,30.93,0,0,0-5.11,10.41,79,79,0,0,0-2.63,22.09m71.94.61a73.73,73.73,0,0,1-4.28,26.55c-5.74,15.78-16.53,25.86-33.52,28.35-9.17,1.35-18.14.5-26.62-3.65-7.93-3.87-13.7-9.93-18-17.51a60.25,60.25,0,0,1-6.65-19.94,85.74,85.74,0,0,1-1.1-17.73c.41-11.14,2.25-21.93,7.89-31.79,6.25-10.87,15.45-17.62,27.83-19.62,8.45-1.37,16.94-1.43,25.11,1.79a39.44,39.44,0,0,1,17.5,13c6.33,8.4,9.65,17.94,10.81,28.29.46,4.06.68,8.15,1,12.22"/><path class="cls-1" d="M897.1,216.26H868.33V106.81H894c.25,5.12.49,10.27.72,15.4,4.61-5.9,8.56-12.08,15.59-15.31s14.27-2.94,22-1.68c.07,9.42,0,18.78,0,28.41-1.91-.21-3.51-.32-5.07-.59a33.08,33.08,0,0,0-14.57,1c-7,1.9-11.37,6.61-13.68,13.32a38.52,38.52,0,0,0-2,12.68q0,26.31,0,52.62Z"/><path class="cls-1" d="M988.94,89.35H949.88V73.24c2.16-.61,91-.86,96-.24V89.27c-4.18.2-8.46.06-12.71.09s-8.62,0-12.93,0H1007V216h-18Z"/><path class="cls-1" d="M1403.19,216.22H1386V109c2-.62,12.08-.75,16-.12v18.22l.63.2c1.22-1.9,2.46-3.82,3.67-5.74A34.75,34.75,0,0,1,1419.05,109a17.89,17.89,0,0,1,9.08-2.39c2.87.07,5.75-.07,8.63,0,1.8.07,3.6.43,5.79.69-.8,5.73-1.56,11.14-2.36,16.85-1.93-.23-3.62-.42-5.3-.64-7.27-1-14.14-.18-20.09,4.54-4.29,3.4-6.93,8-8.79,13.06a50.41,50.41,0,0,0-2.85,17.74c.08,18,0,35.92,0,53.88Z"/><path class="cls-1" d="M162.31,270.26c26.71-2.33,57.44-16,79.32-41.31,24.55-28.44,34.4-61.58,29.79-98.78C263.83,69.08,207.15,14.35,132.14,23.39,68.42,31.07,16,88.8,24.38,161.67,31.89,227.15,87,266.81,133.66,270.08q.26-3.3.49-6.58c.49-6.48,1-12.94,1.43-19.41.27-3.87.38-7.74.66-11.61.35-4.65.88-9.29,1.22-13.94.53-7.09,1-14.2,1.45-21.3q.78-11.6,1.59-23.2c.27-3.87.6-7.73.93-11.6.18-2.25.28-4.44-2.23-5.65-.34-.16-.57-.54-.85-.82a13.12,13.12,0,0,1-1.76-16.21c2.72-4.54,9.61-7.73,15.33-5.71,5.39,1.9,8.55,5.63,9.35,11.19.72,5.06-1.26,9.14-5.25,12.26l-1.61,1.22,7.9,111.54m-14,16.14c-38.93-.77-72.35-14.14-99.51-41.67C21,216.5,7.52,182.07,8.67,142.49c1.06-36.69,14.82-68.45,41-94.3C78.43,19.7,113.49,6.09,154,7.63a139,139,0,0,1,133.47,141c-.31,35.86-13.05,67.38-37.74,93.5-27.5,29.09-61.7,43.4-101.33,44.24"/><path class="cls-1" d="M180.82,217.16c-.89-7.11-1.82-14.12-2.46-21.23,16.31-10.76,25.69-25.8,27.14-45.19a55.26,55.26,0,0,0-13.71-41.33,57.58,57.58,0,0,0-86.06-1.87c-12.3,13.24-17.28,29.18-14.88,47.09s11.71,31.52,26.78,41.4c-.82,7-1.65,14-2.48,21-27-11.71-48.39-42.4-44.59-78.11a77.79,77.79,0,1,1,110.26,78.25"/></svg>